<svg id="SvgjsSvg1001" width="288" height="288" xmlns="http://www.w3.org/2000/svg" version="1.1" xmlns:xlink="http://www.w3.org/1999/xlink" xmlns:svgjs="http://svgjs.com/svgjs"><defs id="SvgjsDefs1002"></defs><g id="SvgjsG1008"><svg xmlns="http://www.w3.org/2000/svg" viewBox="0 0 64 64" width="288" height="288"><g fill="#134563" class="color134563 svgShape"><path d="M51.5 51.5h-39c-2.3 0-4.2-1.9-4.2-4.2V22.2c0-2.3 1.9-4.2 4.2-4.2h8.4c.2 0 .7-.3.8-.5l1.5-3.1c.6-1.1 2-2 3.3-2h11.1c1.3 0 2.7.9 3.3 2l1.5 3.1c.1.2.5.5.8.5h8.4c2.3 0 4.2 1.9 4.2 4.2v25.1c-.1 2.3-2 4.2-4.3 4.2zm-39-30.6c-.8 0-1.4.6-1.4 1.4v25.1c0 .8.6 1.4 1.4 1.4h39c.8 0 1.4-.6 1.4-1.4V22.3c0-.8-.6-1.4-1.4-1.4h-8.4c-1.3 0-2.7-.9-3.3-2l-1.5-3.1c-.1-.2-.5-.5-.8-.5H26.4c-.2 0-.7.3-.8.5l-1.5 3.1c-.6 1.1-2 2-3.3 2h-8.3z"></path><path d="M32 45.9c-6.9 0-12.5-5.6-12.5-12.5S25.1 20.9 32 20.9s12.5 5.6 12.5 12.5S38.9 45.9 32 45.9zm0-22.3c-5.4 0-9.8 4.4-9.8 9.8s4.4 9.8 9.8 9.8 9.8-4.4 9.8-9.8-4.4-9.8-9.8-9.8zm15.3 0c0 .8-.6 1.4-1.4 1.4s-1.4-.6-1.4-1.4.6-1.4 1.4-1.4 1.4.7 1.4 1.4M13.9 15.3h5.6v1.4h-5.6z"></path><path d="M32 27.8v-1.4c-3.8 0-7 3.1-7 7h1.4c0-3.1 2.5-5.6 5.6-5.6"></path></g></svg></g></svg>